<svg xmlns="http://www.w3.org/2000/svg" width="680" height="420" viewBox="0 0 680 420">
  <rect width="680" height="420" fill="#ffffff"/>
  <text x="340" y="28" text-anchor="middle" font-family="Segoe UI, sans-serif" font-size="16" fill="#222">Свободное место на D при размере потока до 12 288 байт</text>
  <g font-family="Segoe UI, sans-serif" font-size="13" fill="#333">
    <text x="148" y="58" text-anchor="end">30 833 549 312</text>
    <text x="148" y="141" text-anchor="end">30 833 545 216</text>
    <text x="148" y="223" text-anchor="end">30 833 541 120</text>
    <text x="148" y="306" text-anchor="end">30 833 537 024</text>
  </g>
  <line x1="160" y1="52" x2="620" y2="52" stroke="#e4e4e4"/>
  <line x1="160" y1="135" x2="620" y2="135" stroke="#e4e4e4"/>
  <line x1="160" y1="217" x2="620" y2="217" stroke="#e4e4e4"/>
  <line x1="160" y1="300" x2="620" y2="300" stroke="#e4e4e4"/>
  <line x1="160" y1="40" x2="160" y2="300" stroke="#222"/>
  <line x1="160" y1="300" x2="620" y2="300" stroke="#222"/>
  <polyline fill="none" stroke="#1f4e79" stroke-width="2.5" points="175,52 221,52 267,52 313,135 359,135 405,135 451,135 497,217 543,217 589,300"/>
  <g fill="#1f4e79">
    <circle cx="175" cy="52" r="4"/>
    <circle cx="221" cy="52" r="4"/>
    <circle cx="267" cy="52" r="4"/>
    <circle cx="313" cy="135" r="4"/>
    <circle cx="359" cy="135" r="4"/>
    <circle cx="405" cy="135" r="4"/>
    <circle cx="451" cy="135" r="4"/>
    <circle cx="497" cy="217" r="4"/>
    <circle cx="543" cy="217" r="4"/>
    <circle cx="589" cy="300" r="4"/>
  </g>
  <g font-family="Segoe UI, sans-serif" font-size="12" fill="#333" text-anchor="middle">
    <text x="175" y="322">0</text>
    <text x="221" y="322">100</text>
    <text x="267" y="322">500</text>
    <text x="313" y="322">900</text>
    <text x="359" y="322">2000</text>
    <text x="405" y="322">4095</text>
    <text x="451" y="322">4096</text>
    <text x="497" y="322">4097</text>
    <text x="543" y="322">8192</text>
    <text x="589" y="322">12288</text>
  </g>
  <text x="390" y="358" text-anchor="middle" font-family="Segoe UI, sans-serif" font-size="14" fill="#222">Записано в поток, байт</text>
  <text x="28" y="180" text-anchor="middle" font-family="Segoe UI, sans-serif" font-size="14" fill="#222" transform="rotate(-90 28 180)">Свободно, байт</text>
</svg>